<?xml version="1.0" encoding="utf-8"?>
<!-- Generator: Adobe Illustrator 22.0.0, SVG Export Plug-In . SVG Version: 6.00 Build 0)  -->
<svg version="1.1" id="Warstwa_1" xmlns="http://www.w3.org/2000/svg" xmlns:xlink="http://www.w3.org/1999/xlink" x="0px" y="0px"
	 viewBox="0 0 800 600" style="enable-background:new 0 0 800 600;" xml:space="preserve">
<style type="text/css">
	.st0{fill-rule:evenodd;clip-rule:evenodd;fill:#6BC25D;}
	.st1{fill-rule:evenodd;clip-rule:evenodd;fill:#408C33;}
	.st2{fill:#408C33;}
</style>
<path class="st0" d="M410.3,7.5c-78.9-7.4-94.4,157.1-38.1,329.7c-14.8-31-28-67.1-38.5-106.2c-8.8-33-14.9-65-18.2-94.8
	L211.8,239.9l187.7,187.7c90.8-89.6,44.5-309.7,35.3-340l-33.9-33.9c-24.2,68.4-23.1,189.6,5.1,327.7c-7-20-13.5-40.9-19.3-62.8
	C379.1,290,323.4,59.4,410.3,7.5z"/>
<path class="st1" d="M470.6,356.4l116.6-116.6L440,92.6C468,179.4,478.5,272.3,470.6,356.4z"/>
<path class="st2" d="M529.9,548.5v-11.1h16.4l-15.7-42.9l-0.6,1.6v-17h11.5l35.3,93c1.7,4.2,3.4,7.6,5.3,10.3
	c1.9,2.6,4.3,5.2,7.3,7.7h-31.8l0.4-0.4c2.9-3.1,4.4-5.3,4.4-6.8c0-1.7-0.7-4.2-1.9-7.5c-0.1-0.5-0.3-0.9-0.4-1.2l-9.5-25.7H529.9
	L529.9,548.5z M757,570.4c0,5.6,0.5,9.7,1.5,12.4c1,2.7,2.7,5.1,5,7.2h-30.6c2.4-2.1,4.1-4.5,5.1-7.2c1-2.7,1.5-6.8,1.5-12.4v-30.6
	l-27.2-44c-2.1-3.3-4.3-6.3-6.8-9.1c-2.2-2.5-4.7-4.9-7.4-7.1c-2.1,1.9-3.6,4.1-4.5,6.6c-1,2.6-1.5,6.8-1.5,12.4v94
	c-3.9-0.1-7.6-1.4-11.1-3.8c-3.5-2.4-7.9-7-13.1-13.7l-57.3-72.2v67.4c0,5.8,0.5,10,1.4,12.6c1,2.6,2.6,5,4.9,7h-25.2
	c2.3-2.1,4-4.5,5-7.2c1-2.7,1.5-6.8,1.5-12.4v-71.8c0-5.6-0.5-9.7-1.5-12.4c-1-2.7-2.7-5-5-7.1h22.5l65.7,83.3v-63.8
	c0-5.6-0.5-9.7-1.5-12.4c-1-2.7-2.7-5-5-7.1h23.9h1.3H722l28.8,48.3l19.4-31.5c1.2-1.9,2.1-3.7,2.7-5.2c0.6-1.6,0.9-2.9,0.9-4
	c0-1.3-0.4-2.5-1.1-3.8c-0.8-1.3-2-2.5-3.6-3.8H795l-38,61V570.4z M529.9,479v17l-16.4,41.3h16.4v11.1h-20.8L498.5,575
	c-0.5,1.1-0.8,2.3-1.1,3.5c-0.2,1.2-0.4,2.4-0.4,3.7c0,1.1,0.4,2.2,1.2,3.5c0.8,1.3,2,2.7,3.7,4.3h-23.5v-2.2
	c1.1-1.1,2.2-2.4,3.2-3.9c1.7-2.6,3.5-6.2,5.3-10.7l31.3-79.2c0.6-1.5,1.1-3,1.4-4.4c0.3-1.4,0.5-2.7,0.5-3.8c0-1.3-0.3-2.5-0.9-3.5
	c-0.6-1.1-1.6-2.1-3-3.2H529.9L529.9,479z M478.4,522c1.8-3.8,2.7-8,2.7-12.7c0-4.6-0.9-8.7-2.7-12.4V522z M478.4,497v25
	c-1.6,3.4-4,6.5-7.2,9.1c-6.6,5.5-15.2,8.3-26,8.3c-1.8,0-3.8-0.1-5.9-0.3c-2.1-0.2-4.3-0.5-6.7-1c10-1.9,17.5-5,22.6-9.5
	c5.1-4.5,7.7-10.2,7.7-17.1c0-6.4-2.2-11.5-6.7-15.2c-4.4-3.7-10.5-5.6-18.1-5.6c-1.7,0-3.5,0.1-5.6,0.4c-2.1,0.2-4.4,0.6-6.9,1.1
	v78.2c0,5.6,0.5,9.7,1.5,12.4c1,2.7,2.7,5.1,5.1,7.2h-30.4c2.3-2.1,4-4.5,5-7.2c1-2.7,1.5-6.8,1.5-12.4v-71.8
	c0-5.6-0.5-9.7-1.5-12.4c-1-2.7-2.7-5-5-7.1h39.7c12.1,0,21.7,2.8,28.9,8.3C473.9,490.1,476.6,493.3,478.4,497L478.4,497z
	 M478.4,587.8c-0.9,0.8-1.7,1.6-2.7,2.2h2.7V587.8L478.4,587.8z M172.2,592.7v-12c12.1-0.1,22.1-4.4,30.1-12.7
	c8-8.5,12-19.4,12-32.6c0-13.6-4-24.8-11.9-33.8c-7.9-8.9-17.8-13.4-29.7-13.4l-0.5,0v-11.8c8.6,0,16.6,1.3,24.1,4
	c7.5,2.7,13.9,6.6,19.3,11.6c5.8,5.3,10.1,11.6,13.2,18.9c3,7.3,4.6,15.1,4.6,23.5c0,7.7-1.7,15.3-5.1,22.7
	c-3.4,7.4-8.2,14-14.4,19.7c-5.5,5.2-11.9,9.1-18.9,11.8C187.8,591.3,180.2,592.7,172.2,592.7L172.2,592.7z M239.7,590
	c2.8-2.8,4.9-5.7,6.4-8.6c1.5-2.9,2.5-6.4,3.2-10.2l11.1-74.6c0.3-1.8,0.5-3.3,0.6-4.6c0.1-1.3,0.2-2.3,0.2-3.3c0-1.6-0.3-3.1-1-4.3
	c-0.6-1.2-2.2-3-4.6-5.3h28.3l33.2,82.4l32.5-82.4h27c-1.7,1.6-2.9,3.2-3.6,5c-0.8,1.8-1.1,4-1.1,6.5c0,1.2,0,2.3,0.1,3.1
	c0.1,0.8,0.1,1.7,0.2,2.6l9.7,76.2c0.4,3.7,1.3,7,2.5,9.8c1.3,2.8,3,5.4,5.3,7.9h-30.1c2.1-1.6,3.6-3.4,4.6-5.4
	c1-2.1,1.5-4.5,1.5-7.2c0-0.7,0-1.2,0-1.6c0-0.4-0.1-0.8-0.1-1.1l-9-78.1l-38.4,94.7c-2.9-1.7-5.4-4.1-7.6-7.2
	c-2.2-3-4.4-7.1-6.6-12.4l-30.9-74.8l-11,73.1c-0.4,2.3-0.6,3.9-0.7,4.9c-0.1,1-0.2,1.8-0.2,2.4c0,2.7,0.5,4.9,1.5,6.8
	c1,1.9,2.7,3.8,5.2,5.8H239.7z M101.2,567.8l-8.3,20c-5.2,1.7-10.1,3-14.7,3.8c-4.6,0.8-8.9,1.3-13.1,1.3c-6.2,0-12.2-0.8-18.1-2.4
	c-5.9-1.6-11.4-4-16.6-7.1c-8.3-4.9-14.8-11.7-19.4-20.4c-4.6-8.6-7-18.1-7-28.5c0-7.8,1.7-15.3,5-22.7c3.4-7.4,8.1-13.9,14.3-19.6
	c5.6-5.2,12.1-9.1,19.3-11.8c7.3-2.7,15-4,23.2-4c3.9,0,8,0.4,12.3,1.1c4.3,0.7,8.9,1.8,13.8,3.3v17.8c-5-2.7-9.7-4.6-14.2-5.9
	c-4.5-1.3-8.8-1.9-13.1-1.9c-12.4,0-22.4,3.8-29.8,11.5c-7.5,7.7-11.2,17.8-11.2,30.5c0,13.9,3.9,25.1,11.6,33.7
	c7.8,8.5,17.9,12.8,30.6,12.8c5.2,0,10.7-1,16.5-2.8C88,574.5,94.4,571.7,101.2,567.8L101.2,567.8z M172.2,476.5v11.8
	c-12.1,0.1-22.2,4.3-30.1,12.7c-8,8.5-12,19.3-12,32.4c0,13.6,4,24.9,11.9,33.8c7.9,9,17.8,13.5,29.7,13.5l0.4,0v12l-0.1,0
	c-8.5,0-16.4-1.4-23.9-4.1c-7.5-2.7-13.9-6.6-19.3-11.7c-5.7-5.3-10-11.6-13.1-18.8c-3.1-7.2-4.6-14.8-4.6-22.7
	c0-6.2,1-12.3,2.9-18.1c1.9-5.9,4.8-11.3,8.5-16.4c5.8-7.9,13-13.9,21.5-18.1c8.5-4.2,17.8-6.3,27.9-6.3H172.2z"/>
</svg>
